<svg xmlns="http://www.w3.org/2000/svg" width="1200" height="900" font-family="Arial, Helvetica, sans-serif">
  <rect width="1200" height="900" fill="#F8F7F4"/>
  <rect x="0" y="0" width="1200" height="70" fill="#0F6E56"/>
  <text x="600" y="32" text-anchor="middle" fill="white" font-size="22" font-weight="bold">Smart Campus - REST API Architecture</text>
  <text x="600" y="56" text-anchor="middle" fill="#A7F3D0" font-size="14">Spring Boot 3.3.4 - MongoDB - Layered Architecture - RESTful Design</text>

  <text x="600" y="100" text-anchor="middle" fill="#374151" font-size="13" font-weight="bold">REQUEST LIFECYCLE</text>
  <rect x="50" y="110" width="150" height="44" rx="8" fill="#DBEAFE" stroke="#1D4ED8" stroke-width="1.5"/>
  <text x="125" y="128" text-anchor="middle" fill="#1E40AF" font-size="11" font-weight="bold">React Client</text>
  <text x="125" y="144" text-anchor="middle" fill="#1E40AF" font-size="10">Axios + Bearer JWT</text>
  <line x1="200" y1="132" x2="234" y2="132" stroke="#374151" stroke-width="1.5" marker-end="url(#a1)"/>
  <rect x="235" y="110" width="145" height="44" rx="8" fill="#FEF3C7" stroke="#D97706" stroke-width="1.5"/>
  <text x="307" y="128" text-anchor="middle" fill="#92400E" font-size="11" font-weight="bold">CORS Config</text>
  <text x="307" y="144" text-anchor="middle" fill="#92400E" font-size="10">cross-origin access</text>
  <line x1="380" y1="132" x2="414" y2="132" stroke="#374151" stroke-width="1.5" marker-end="url(#a1)"/>
  <rect x="415" y="110" width="145" height="44" rx="8" fill="#FDF4FF" stroke="#7C3AED" stroke-width="1.5"/>
  <text x="487" y="128" text-anchor="middle" fill="#581C87" font-size="11" font-weight="bold">SecurityConfig</text>
  <text x="487" y="144" text-anchor="middle" fill="#581C87" font-size="10">auth paths open, others currently permitted</text>
  <line x1="560" y1="132" x2="594" y2="132" stroke="#374151" stroke-width="1.5" marker-end="url(#a1)"/>
  <rect x="595" y="110" width="145" height="44" rx="8" fill="#F0FDF4" stroke="#0F6E56" stroke-width="1.5"/>
  <text x="667" y="128" text-anchor="middle" fill="#065F46" font-size="11" font-weight="bold">Controller</text>
  <text x="667" y="144" text-anchor="middle" fill="#065F46" font-size="10">route + payload mapping</text>
  <line x1="740" y1="132" x2="774" y2="132" stroke="#374151" stroke-width="1.5" marker-end="url(#a1)"/>
  <rect x="775" y="110" width="145" height="44" rx="8" fill="#FFFBEB" stroke="#D97706" stroke-width="1.5"/>
  <text x="847" y="128" text-anchor="middle" fill="#78350F" font-size="11" font-weight="bold">Service</text>
  <text x="847" y="144" text-anchor="middle" fill="#78350F" font-size="10">business logic + validation</text>
  <line x1="920" y1="132" x2="954" y2="132" stroke="#374151" stroke-width="1.5" marker-end="url(#a1)"/>
  <rect x="955" y="110" width="145" height="44" rx="8" fill="#ECFDF5" stroke="#10B981" stroke-width="1.5"/>
  <text x="1027" y="128" text-anchor="middle" fill="#065F46" font-size="11" font-weight="bold">Repository</text>
  <text x="1027" y="144" text-anchor="middle" fill="#065F46" font-size="10">Spring Data MongoDB</text>
  <line x1="1100" y1="132" x2="1134" y2="132" stroke="#374151" stroke-width="1.5" marker-end="url(#a1)"/>
  <rect x="1135" y="110" width="45" height="44" rx="8" fill="#ECFDF5" stroke="#10B981" stroke-width="1.5"/>
  <text x="1157" y="128" text-anchor="middle" fill="#065F46" font-size="10" font-weight="bold">DB</text>
  <text x="1157" y="144" text-anchor="middle" fill="#065F46" font-size="9">Mongo</text>

  <text x="600" y="186" text-anchor="middle" fill="#374151" font-size="13" font-weight="bold">CONTROLLERS - ENDPOINTS REFERENCE</text>

  <rect x="50" y="196" width="320" height="220" rx="10" fill="white" stroke="#1D4ED8" stroke-width="2"/>
  <rect x="50" y="196" width="320" height="30" rx="10" fill="#1D4ED8"/>
  <rect x="50" y="212" width="320" height="14" fill="#1D4ED8"/>
  <text x="210" y="215" text-anchor="middle" fill="white" font-size="12" font-weight="bold">Auth and Users</text>
  <text x="70" y="242" fill="#15803D" font-size="10" font-weight="bold">POST</text>
  <text x="105" y="242" fill="#374151" font-size="11">/api/auth/login</text>
  <text x="330" y="242" text-anchor="end" fill="#6B7280" font-size="10">login + JWT issue</text>
  <text x="70" y="260" fill="#15803D" font-size="10" font-weight="bold">POST</text>
  <text x="105" y="260" fill="#374151" font-size="11">/api/auth/oauth</text>
  <text x="330" y="260" text-anchor="end" fill="#6B7280" font-size="10">Google access-token login</text>
  <text x="70" y="278" fill="#15803D" font-size="10" font-weight="bold">POST</text>
  <text x="105" y="278" fill="#374151" font-size="11">/api/auth/register</text>
  <text x="330" y="278" text-anchor="end" fill="#6B7280" font-size="10">access request</text>
  <text x="70" y="296" fill="#1D4ED8" font-size="10" font-weight="bold">GET</text>
  <text x="105" y="296" fill="#374151" font-size="11">/api/users</text>
  <text x="330" y="296" text-anchor="end" fill="#6B7280" font-size="10">all users</text>
  <text x="70" y="314" fill="#1D4ED8" font-size="10" font-weight="bold">GET</text>
  <text x="105" y="314" fill="#374151" font-size="11">/api/users/pending</text>
  <text x="330" y="314" text-anchor="end" fill="#6B7280" font-size="10">pending approvals</text>
  <text x="70" y="332" fill="#15803D" font-size="10" font-weight="bold">POST</text>
  <text x="105" y="332" fill="#374151" font-size="11">/api/users/{id}/approve</text>
  <text x="330" y="332" text-anchor="end" fill="#6B7280" font-size="10">approve access</text>
  <text x="70" y="350" fill="#B91C1C" font-size="10" font-weight="bold">DELETE</text>
  <text x="115" y="350" fill="#374151" font-size="11">/api/users/{id}/reject</text>
  <text x="330" y="350" text-anchor="end" fill="#6B7280" font-size="10">reject access</text>
  <text x="70" y="368" fill="#B45309" font-size="10" font-weight="bold">PATCH</text>
  <text x="110" y="368" fill="#374151" font-size="11">/api/users/{id}/role?role=...</text>
  <text x="330" y="368" text-anchor="end" fill="#6B7280" font-size="10">role update</text>
  <text x="70" y="386" fill="#15803D" font-size="10" font-weight="bold">POST</text>
  <text x="105" y="386" fill="#374151" font-size="11">/api/users/technicians</text>
  <text x="330" y="386" text-anchor="end" fill="#6B7280" font-size="10">create technician</text>

  <rect x="390" y="196" width="305" height="220" rx="10" fill="white" stroke="#0F6E56" stroke-width="2"/>
  <rect x="390" y="196" width="305" height="30" rx="10" fill="#0F6E56"/>
  <rect x="390" y="212" width="305" height="14" fill="#0F6E56"/>
  <text x="542" y="215" text-anchor="middle" fill="white" font-size="12" font-weight="bold">Resources and Bookings</text>
  <text x="410" y="242" fill="#1D4ED8" font-size="10" font-weight="bold">GET</text>
  <text x="445" y="242" fill="#374151" font-size="11">/api/resources</text>
  <text x="680" y="242" text-anchor="end" fill="#6B7280" font-size="10">list resources</text>
  <text x="410" y="260" fill="#1D4ED8" font-size="10" font-weight="bold">GET</text>
  <text x="445" y="260" fill="#374151" font-size="11">/api/resources/{id}</text>
  <text x="680" y="260" text-anchor="end" fill="#6B7280" font-size="10">resource details</text>
  <text x="410" y="278" fill="#15803D" font-size="10" font-weight="bold">POST</text>
  <text x="445" y="278" fill="#374151" font-size="11">/api/resources</text>
  <text x="680" y="278" text-anchor="end" fill="#6B7280" font-size="10">create resource</text>
  <text x="410" y="296" fill="#B45309" font-size="10" font-weight="bold">PUT</text>
  <text x="445" y="296" fill="#374151" font-size="11">/api/resources/{id}</text>
  <text x="680" y="296" text-anchor="end" fill="#6B7280" font-size="10">update resource</text>
  <text x="410" y="314" fill="#B91C1C" font-size="10" font-weight="bold">DELETE</text>
  <text x="455" y="314" fill="#374151" font-size="11">/api/resources/{id}</text>
  <text x="680" y="314" text-anchor="end" fill="#6B7280" font-size="10">delete resource</text>
  <text x="410" y="332" fill="#1D4ED8" font-size="10" font-weight="bold">GET</text>
  <text x="445" y="332" fill="#374151" font-size="11">/api/bookings - /pending - /user/{userId}</text>
  <text x="680" y="332" text-anchor="end" fill="#6B7280" font-size="10">booking lists</text>
  <text x="410" y="350" fill="#1D4ED8" font-size="10" font-weight="bold">GET</text>
  <text x="445" y="350" fill="#374151" font-size="11">/api/bookings/resource/{resourceId}?date=...</text>
  <text x="680" y="350" text-anchor="end" fill="#6B7280" font-size="10">occupied slots</text>
  <text x="410" y="368" fill="#15803D" font-size="10" font-weight="bold">POST</text>
  <text x="445" y="368" fill="#374151" font-size="11">/api/bookings/availability - /api/bookings</text>
  <text x="680" y="368" text-anchor="end" fill="#6B7280" font-size="10">check and create</text>
  <text x="410" y="386" fill="#15803D" font-size="10" font-weight="bold">POST</text>
  <text x="445" y="386" fill="#374151" font-size="11">/{id}/approve - /reject - /cancel</text>
  <text x="680" y="386" text-anchor="end" fill="#6B7280" font-size="10">booking status actions</text>

  <rect x="715" y="196" width="465" height="220" rx="10" fill="white" stroke="#EA580C" stroke-width="2"/>
  <rect x="715" y="196" width="465" height="30" rx="10" fill="#EA580C"/>
  <rect x="715" y="212" width="465" height="14" fill="#EA580C"/>
  <text x="947" y="215" text-anchor="middle" fill="white" font-size="12" font-weight="bold">Tickets and Notifications</text>
  <text x="735" y="242" fill="#1D4ED8" font-size="10" font-weight="bold">GET</text>
  <text x="770" y="242" fill="#374151" font-size="11">/api/tickets - /user/{userId} - /technician/{techId} - /{id}</text>
  <text x="1165" y="242" text-anchor="end" fill="#6B7280" font-size="10">list + detail</text>
  <text x="735" y="260" fill="#15803D" font-size="10" font-weight="bold">POST</text>
  <text x="770" y="260" fill="#374151" font-size="11">/api/tickets</text>
  <text x="1165" y="260" text-anchor="end" fill="#6B7280" font-size="10">create ticket</text>
  <text x="735" y="278" fill="#B45309" font-size="10" font-weight="bold">PATCH</text>
  <text x="775" y="278" fill="#374151" font-size="11">/api/tickets/{id}/status</text>
  <text x="1165" y="278" text-anchor="end" fill="#6B7280" font-size="10">status update</text>
  <text x="735" y="296" fill="#15803D" font-size="10" font-weight="bold">POST</text>
  <text x="770" y="296" fill="#374151" font-size="11">/{id}/assign - /resolve - /accept - /rate - /rating-token</text>
  <text x="1165" y="296" text-anchor="end" fill="#6B7280" font-size="10">ticket actions</text>
  <text x="735" y="314" fill="#15803D" font-size="10" font-weight="bold">POST</text>
  <text x="770" y="314" fill="#374151" font-size="11">/api/tickets/{id}/comments</text>
  <text x="1165" y="314" text-anchor="end" fill="#6B7280" font-size="10">add comment</text>
  <text x="735" y="332" fill="#1D4ED8" font-size="10" font-weight="bold">GET</text>
  <text x="770" y="332" fill="#374151" font-size="11">/api/notifications?userId=...</text>
  <text x="1165" y="332" text-anchor="end" fill="#6B7280" font-size="10">user notifications</text>
  <text x="735" y="350" fill="#B45309" font-size="10" font-weight="bold">PATCH</text>
  <text x="775" y="350" fill="#374151" font-size="11">/api/notifications/{id}?userId=...</text>
  <text x="1165" y="350" text-anchor="end" fill="#6B7280" font-size="10">mark read</text>
  <text x="735" y="368" fill="#B45309" font-size="10" font-weight="bold">PATCH</text>
  <text x="775" y="368" fill="#374151" font-size="11">/api/notifications/read-all?userId=...</text>
  <text x="1165" y="368" text-anchor="end" fill="#6B7280" font-size="10">mark all read</text>
  <text x="735" y="386" fill="#6B7280" font-size="10">Ticket data also carries comments, worklog, rating token and feedback fields</text>

  <rect x="50" y="434" width="485" height="176" rx="10" fill="white" stroke="#7C3AED" stroke-width="2"/>
  <rect x="50" y="434" width="485" height="30" rx="10" fill="#7C3AED"/>
  <rect x="50" y="450" width="485" height="14" fill="#7C3AED"/>
  <text x="292" y="453" text-anchor="middle" fill="white" font-size="12" font-weight="bold">Security and Authentication Notes</text>
  <text x="70" y="480" fill="#374151" font-size="11" font-weight="bold">JWT Service</text>
  <text x="165" y="480" fill="#6B7280" font-size="10">HS256 token generation with 24 hour expiry</text>
  <text x="70" y="498" fill="#374151" font-size="11" font-weight="bold">Password Encoder</text>
  <text x="165" y="498" fill="#6B7280" font-size="10">BCryptPasswordEncoder bean</text>
  <text x="70" y="516" fill="#374151" font-size="11" font-weight="bold">Google OAuth</text>
  <text x="165" y="516" fill="#6B7280" font-size="10">backend calls Google userinfo endpoint via RestClient</text>
  <text x="70" y="534" fill="#374151" font-size="11" font-weight="bold">Role model</text>
  <text x="165" y="534" fill="#6B7280" font-size="10">USER - ADMIN - TECHNICIAN stored on User documents</text>
  <text x="70" y="552" fill="#374151" font-size="11" font-weight="bold">Current limitation</text>
  <text x="165" y="552" fill="#6B7280" font-size="10">backend filter chain currently permits all non-auth routes</text>
  <text x="70" y="570" fill="#374151" font-size="11" font-weight="bold">Enforcement today</text>
  <text x="165" y="570" fill="#6B7280" font-size="10">frontend route guards provide most visible access restriction</text>
  <text x="70" y="590" fill="#9CA3AF" font-size="9">important architectural note: security hardening is still pending on server-side route authorization</text>

  <rect x="555" y="434" width="270" height="176" rx="10" fill="white" stroke="#B91C1C" stroke-width="2"/>
  <rect x="555" y="434" width="270" height="30" rx="10" fill="#B91C1C"/>
  <rect x="555" y="450" width="270" height="14" fill="#B91C1C"/>
  <text x="690" y="453" text-anchor="middle" fill="white" font-size="12" font-weight="bold">Error and Response Handling</text>
  <text x="690" y="480" text-anchor="middle" fill="#374151" font-size="11" font-weight="bold">GlobalExceptionHandler</text>
  <text x="690" y="496" text-anchor="middle" fill="#374151" font-size="10">centralizes runtime error responses</text>
  <text x="570" y="518" fill="#374151" font-size="10">200</text>
  <text x="596" y="518" fill="#6B7280" font-size="10">successful reads and updates</text>
  <text x="570" y="534" fill="#374151" font-size="10">201</text>
  <text x="596" y="534" fill="#6B7280" font-size="10">represented through success wrapper on create</text>
  <text x="570" y="550" fill="#374151" font-size="10">400</text>
  <text x="596" y="550" fill="#6B7280" font-size="10">validation / malformed input</text>
  <text x="570" y="566" fill="#374151" font-size="10">401/403</text>
  <text x="620" y="566" fill="#6B7280" font-size="10">not strongly enforced yet in current config</text>
  <text x="570" y="582" fill="#374151" font-size="10">404/409/500</text>
  <text x="640" y="582" fill="#6B7280" font-size="10">not found / conflict / internal error</text>
  <text x="690" y="600" text-anchor="middle" fill="#9CA3AF" font-size="9">responses are wrapped by ApiResponse.success(message, data)</text>

  <rect x="845" y="434" width="335" height="176" rx="10" fill="white" stroke="#10B981" stroke-width="2"/>
  <rect x="845" y="434" width="335" height="30" rx="10" fill="#10B981"/>
  <rect x="845" y="450" width="335" height="14" fill="#10B981"/>
  <text x="1012" y="453" text-anchor="middle" fill="white" font-size="12" font-weight="bold">MongoDB Collections and Models</text>
  <text x="865" y="480" fill="#374151" font-size="11" font-weight="bold">Collection</text>
  <text x="1010" y="480" fill="#374151" font-size="11" font-weight="bold">Representative fields</text>
  <line x1="860" y1="486" x2="1170" y2="486" stroke="#D1FAE5" stroke-width="1"/>
  <text x="865" y="502" fill="#374151" font-size="10">users</text>
  <text x="1010" y="502" fill="#6B7280" font-size="10">name, email, password, role, approved</text>
  <text x="865" y="518" fill="#374151" font-size="10">resources</text>
  <text x="1010" y="518" fill="#6B7280" font-size="10">type, category, capacity, status, amenities</text>
  <text x="865" y="534" fill="#374151" font-size="10">bookings</text>
  <text x="1010" y="534" fill="#6B7280" font-size="10">userId, resourceId, times, status, purpose</text>
  <text x="865" y="550" fill="#374151" font-size="10">tickets</text>
  <text x="1010" y="550" fill="#6B7280" font-size="10">priority, status, technician, worklog, comments</text>
  <text x="865" y="566" fill="#374151" font-size="10">notifications</text>
  <text x="1010" y="566" fill="#6B7280" font-size="10">target user, title, message, link, readBy</text>
  <line x1="860" y1="572" x2="1170" y2="572" stroke="#D1FAE5" stroke-width="1"/>
  <text x="1012" y="592" text-anchor="middle" fill="#6B7280" font-size="9">tickets embed comments and worklog entries rather than using a separate comment collection</text>

  <rect x="50" y="630" width="1130" height="88" rx="10" fill="white" stroke="#7C3AED" stroke-width="2"/>
  <rect x="50" y="630" width="1130" height="28" rx="10" fill="#7C3AED"/>
  <rect x="50" y="644" width="1130" height="14" fill="#7C3AED"/>
  <text x="615" y="647" text-anchor="middle" fill="white" font-size="12" font-weight="bold">AUTHENTICATION FLOW IN THIS REPOSITORY</text>
  <rect x="65" y="666" width="160" height="42" rx="6" fill="#FDF4FF" stroke="#A855F7" stroke-width="1"/>
  <text x="145" y="681" text-anchor="middle" fill="#581C87" font-size="10" font-weight="bold">1. Frontend gets token</text>
  <text x="145" y="695" text-anchor="middle" fill="#581C87" font-size="10">Google OAuth component</text>
  <line x1="225" y1="687" x2="248" y2="687" stroke="#374151" stroke-width="1.5" marker-end="url(#a1)"/>
  <rect x="249" y="666" width="160" height="42" rx="6" fill="#FDF4FF" stroke="#A855F7" stroke-width="1"/>
  <text x="329" y="681" text-anchor="middle" fill="#581C87" font-size="10" font-weight="bold">2. POST /api/auth/oauth</text>
  <text x="329" y="695" text-anchor="middle" fill="#581C87" font-size="10">provider + role + accessToken</text>
  <line x1="409" y1="687" x2="432" y2="687" stroke="#374151" stroke-width="1.5" marker-end="url(#a1)"/>
  <rect x="433" y="666" width="175" height="42" rx="6" fill="#FDF4FF" stroke="#A855F7" stroke-width="1"/>
  <text x="520" y="681" text-anchor="middle" fill="#581C87" font-size="10" font-weight="bold">3. AuthService validates</text>
  <text x="520" y="695" text-anchor="middle" fill="#581C87" font-size="10">Google userinfo via RestClient</text>
  <line x1="608" y1="687" x2="631" y2="687" stroke="#374151" stroke-width="1.5" marker-end="url(#a1)"/>
  <rect x="632" y="666" width="165" height="42" rx="6" fill="#FDF4FF" stroke="#A855F7" stroke-width="1"/>
  <text x="714" y="681" text-anchor="middle" fill="#581C87" font-size="10" font-weight="bold">4. User loaded or created</text>
  <text x="714" y="695" text-anchor="middle" fill="#581C87" font-size="10">MongoDB user record updated</text>
  <line x1="797" y1="687" x2="820" y2="687" stroke="#374151" stroke-width="1.5" marker-end="url(#a1)"/>
  <rect x="821" y="666" width="145" height="42" rx="6" fill="#FDF4FF" stroke="#A855F7" stroke-width="1"/>
  <text x="893" y="681" text-anchor="middle" fill="#581C87" font-size="10" font-weight="bold">5. JWT generated</text>
  <text x="893" y="695" text-anchor="middle" fill="#581C87" font-size="10">JwtService HS256 token</text>
  <line x1="966" y1="687" x2="989" y2="687" stroke="#374151" stroke-width="1.5" marker-end="url(#a1)"/>
  <rect x="990" y="666" width="160" height="42" rx="6" fill="#FDF4FF" stroke="#A855F7" stroke-width="1"/>
  <text x="1070" y="681" text-anchor="middle" fill="#581C87" font-size="10" font-weight="bold">6. Frontend stores token</text>
  <text x="1070" y="695" text-anchor="middle" fill="#581C87" font-size="10">localStorage then Bearer header</text>

  <rect x="50" y="738" width="1130" height="80" rx="10" fill="white" stroke="#0F6E56" stroke-width="1.5"/>
  <text x="615" y="760" text-anchor="middle" fill="#0F6E56" font-size="12" font-weight="bold">ARCHITECTURAL CHARACTERISTICS</text>
  <text x="130" y="782" text-anchor="middle" fill="#374151" font-size="10" font-weight="bold">Client-Server</text>
  <text x="130" y="796" text-anchor="middle" fill="#6B7280" font-size="9">React and Spring are decoupled</text>
  <text x="320" y="782" text-anchor="middle" fill="#374151" font-size="10" font-weight="bold">Stateless Token Model</text>
  <text x="320" y="796" text-anchor="middle" fill="#6B7280" font-size="9">JWT sent on each request</text>
  <text x="510" y="782" text-anchor="middle" fill="#374151" font-size="10" font-weight="bold">Layered System</text>
  <text x="510" y="796" text-anchor="middle" fill="#6B7280" font-size="9">Controller -> Service -> Repository</text>
  <text x="700" y="782" text-anchor="middle" fill="#374151" font-size="10" font-weight="bold">Unified Response Shape</text>
  <text x="700" y="796" text-anchor="middle" fill="#6B7280" font-size="9">ApiResponse success wrapper</text>
  <text x="890" y="782" text-anchor="middle" fill="#374151" font-size="10" font-weight="bold">Document Persistence</text>
  <text x="890" y="796" text-anchor="middle" fill="#6B7280" font-size="9">MongoDB collections via @Document</text>
  <text x="1070" y="782" text-anchor="middle" fill="#374151" font-size="10" font-weight="bold">Role-aware UX</text>
  <text x="1070" y="796" text-anchor="middle" fill="#6B7280" font-size="9">authorization strongest in frontend today</text>

  <defs>
    <marker id="a1" viewBox="0 0 10 10" refX="8" refY="5" markerWidth="6" markerHeight="6" orient="auto-start-reverse">
      <path d="M2 1L8 5L2 9" fill="none" stroke="#374151" stroke-width="1.5" stroke-linecap="round" stroke-linejoin="round"/>
    </marker>
  </defs>
</svg>
